# xmcd
#
# Track frame offsets:
#	183
#	12318
#	25798
#	40668
#	53303
#	65788
#	76515
#	91655
#	103133
#	118308
#	134028
#	157463
#	169605
#	179643
#	195940
#	206790
#
# Disc length: 2921 seconds
#
# Revision: 0
# Processed by: cddbd v1.5.1PL0 Copyright (c) Steve Scherf et al.
# Submitted via: EasyCDDAExtractor 4.6.9.1
#
DISCID=d70b6710
DTITLE=Aretha Franklin - Black Music Collection
DYEAR=1993
DGENRE=Soul
TTITLE0=Are you sure
TTITLE1=All night long
TTITLE2=Maybe I'm a fool
TTITLE3=Today I sing the blues
TTITLE4=Rough lover
TTITLE5=Nobody like you
TTITLE6=Don't cry, baby
TTITLE7=Just for a thrill
TTITLE8=Lee Cross
TTITLE9=Drinking again
TTITLE10=Nobody knows (the way I feel this morning)
TTITLE11=Take a look
TTITLE12=Cry like a baby
TTITLE13=Without the one you love
TTITLE14=Muddy water
TTITLE15=I'll keep on smiling
EXTD=
EXTT0=
EXTT1=
EXTT2=
EXTT3=
EXTT4=
EXTT5=
EXTT6=
EXTT7=
EXTT8=
EXTT9=
EXTT10=
EXTT11=
EXTT12=
EXTT13=
EXTT14=
EXTT15=
PLAYORDER=
